<?xml version="1.0" standalone="no"?>
<!DOCTYPE svg PUBLIC "-//W3C//DTD SVG 20010904//EN"
 "http://www.w3.org/TR/2001/REC-SVG-20010904/DTD/svg10.dtd">
<svg version="1.0" xmlns="http://www.w3.org/2000/svg"
 width="911.000000pt" height="911.000000pt" viewBox="0 0 911.000000 911.000000"
 preserveAspectRatio="xMidYMid meet">
<metadata>
Created by potrace 1.14, written by Peter Selinger 2001-2017
</metadata>
<g transform="translate(0.000000,911.000000) scale(0.100000,-0.100000)"
fill="#000000" stroke="none">
<path d="M1813 8623 c8 -36 117 -233 128 -233 6 0 -17 53 -51 118 -65 121 -87
154 -77 115z"/>
<path d="M3203 8623 c8 -36 117 -233 128 -233 6 0 -17 53 -51 118 -65 121 -87
154 -77 115z"/>
<path d="M4593 8623 c8 -36 117 -233 128 -233 6 0 -17 53 -51 118 -64 120 -87
155 -77 115z"/>
<path d="M5980 8631 c0 -21 120 -241 132 -241 5 0 -18 53 -52 118 -64 122 -80
146 -80 123z"/>
<path d="M7370 8631 c0 -21 120 -241 132 -241 5 0 -18 53 -52 118 -63 120 -80
146 -80 123z"/>
<path d="M1746 8458 c-13 -24 -34 -64 -47 -89 l-22 -46 -100 -17 c-56 -9 -103
-19 -106 -22 -3 -2 4 -13 15 -23 19 -19 21 -19 125 1 l105 20 46 86 c38 73 44
91 35 110 -14 31 -23 28 -51 -20z"/>
<path d="M3136 8458 c-13 -24 -34 -64 -47 -89 l-22 -46 -100 -17 c-56 -9 -103
-19 -106 -22 -3 -2 4 -13 15 -23 19 -19 21 -19 125 1 l105 20 46 86 c38 73 44
91 35 110 -14 31 -23 28 -51 -20z"/>
<path d="M4526 8458 c-13 -24 -34 -64 -47 -89 l-22 -46 -100 -17 c-56 -9 -103
-19 -106 -22 -3 -2 4 -13 15 -23 19 -19 21 -19 125 1 l106 20 46 86 c37 73 43
91 34 110 -14 31 -23 28 -51 -20z"/>
<path d="M5906 8438 c-19 -35 -40 -75 -46 -89 -12 -27 -8 -26 -187 -56 -37 -6
-40 -13 -15 -35 15 -15 27 -14 123 4 l105 20 47 84 c40 74 45 88 35 110 -6 13
-15 24 -19 24 -4 0 -24 -28 -43 -62z"/>
<path d="M7296 8438 c-19 -35 -40 -75 -46 -89 -12 -27 -8 -26 -187 -56 -37 -6
-40 -13 -15 -35 15 -15 27 -14 123 4 l107 20 45 85 c40 73 44 88 35 109 -6 13
-15 24 -19 24 -4 0 -24 -28 -43 -62z"/>
<path d="M1903 8305 c4 -9 7 -18 7 -20 0 -8 140 -27 154 -22 33 13 14 26 -56
37 -40 6 -82 14 -92 17 -15 4 -18 1 -13 -12z"/>
<path d="M3290 8313 c1 -22 21 -33 83 -43 37 -7 74 -10 82 -6 32 12 12 25 -57
36 -40 6 -81 14 -90 16 -10 3 -18 2 -18 -3z"/>
<path d="M4683 8305 c4 -9 7 -18 7 -20 0 -8 140 -27 154 -22 33 13 14 26 -56
37 -40 6 -82 14 -92 17 -15 4 -18 1 -13 -12z"/>
<path d="M6073 8305 c4 -9 7 -18 7 -20 0 -8 140 -27 154 -22 33 13 14 26 -56
37 -40 6 -82 14 -92 17 -15 4 -18 1 -13 -12z"/>
<path d="M7460 8313 c1 -22 21 -33 83 -43 37 -7 74 -10 82 -6 32 12 12 25 -57
36 -40 6 -81 14 -90 16 -10 3 -18 2 -18 -3z"/>
<path d="M2123 8208 l-103 -103 24 -157 c12 -87 19 -158 14 -158 -4 0 -67 29
-138 65 -71 36 -136 65 -145 65 -8 0 -66 -26 -130 -57 -98 -49 -115 -61 -121
-86 -3 -16 -4 -31 -1 -33 3 -3 69 27 148 66 l143 72 145 -71 c79 -39 146 -70
148 -68 2 2 -6 64 -17 138 -11 74 -20 146 -20 162 0 21 24 52 110 141 100 103
108 114 88 120 -13 3 -28 6 -33 6 -6 0 -56 -46 -112 -102z"/>
<path d="M3513 8208 l-102 -103 23 -155 c12 -85 19 -156 15 -158 -4 -2 -66 26
-138 62 -72 37 -137 66 -146 66 -8 0 -66 -26 -129 -57 -101 -50 -115 -60 -120
-86 -3 -17 -4 -32 -2 -34 2 -2 68 28 147 67 l143 72 145 -71 c79 -39 146 -70
148 -68 2 2 -6 66 -17 141 -11 75 -20 148 -20 161 0 17 33 58 110 138 110 115
116 127 62 127 -10 0 -63 -46 -119 -102z"/>
<path d="M4903 8208 l-102 -103 23 -155 c13 -85 20 -156 15 -158 -4 -2 -66 26
-138 62 -72 37 -137 66 -146 66 -8 0 -66 -26 -129 -57 -101 -50 -115 -60 -120
-86 -3 -17 -4 -32 -2 -34 2 -2 68 28 147 67 l144 72 144 -71 c80 -39 146 -69
148 -67 2 1 -6 65 -17 140 -11 75 -20 148 -20 161 0 17 33 58 110 138 100 104
108 115 88 121 -13 3 -28 6 -33 6 -6 0 -56 -46 -112 -102z"/>
<path d="M6293 8208 l-102 -103 19 -135 c11 -74 22 -147 25 -162 4 -28 4 -28
-135 42 -77 39 -145 70 -152 70 -7 0 -65 -25 -130 -57 -103 -49 -118 -60 -124
-85 -3 -16 -4 -32 -1 -34 3 -3 69 27 148 66 l144 72 145 -71 c79 -38 146 -69
148 -67 1 2 -6 65 -18 141 -11 75 -20 148 -20 160 0 17 34 59 110 138 110 115
116 127 62 127 -10 0 -63 -46 -119 -102z"/>
<path d="M7683 8208 l-102 -103 19 -130 c10 -71 21 -145 24 -162 l5 -32 -140
69 c-76 39 -144 70 -151 70 -7 0 -65 -25 -129 -56 -105 -51 -118 -60 -123 -87
-3 -17 -4 -32 -2 -34 2 -2 68 28 147 67 l144 72 145 -70 c80 -38 146 -69 148
-67 2 1 -6 65 -18 141 -11 77 -20 149 -20 160 0 14 40 64 110 137 110 115 116
127 62 127 -10 0 -63 -46 -119 -102z"/>
<path d="M1610 8119 c0 -8 -6 -54 -14 -102 -7 -48 -10 -90 -5 -92 4 -3 16 3
27 13 16 13 23 34 28 87 5 63 4 72 -15 89 -16 14 -21 16 -21 5z"/>
<path d="M3000 8119 c0 -8 -6 -54 -14 -102 -7 -48 -10 -90 -5 -92 4 -3 16 3
27 13 16 13 23 34 28 87 5 63 4 72 -15 89 -16 14 -21 16 -21 5z"/>
<path d="M4390 8119 c0 -8 -6 -54 -14 -102 -7 -48 -10 -90 -5 -92 4 -3 16 3
27 13 16 13 23 34 28 87 5 63 4 72 -15 89 -16 14 -21 16 -21 5z"/>
<path d="M5770 8047 c-6 -47 -10 -95 -8 -107 3 -22 3 -22 25 -4 17 15 23 34
29 89 5 62 4 72 -14 88 -20 18 -20 17 -32 -66z"/>
<path d="M7160 8047 c-6 -47 -10 -95 -8 -107 3 -22 3 -22 25 -4 17 15 23 34
29 89 5 62 4 72 -14 88 -20 18 -20 17 -32 -66z"/>
<path d="M485 6805 c-417 -690 -420 -695 -452 -695 -18 0 -33 -4 -33 -10 0 -5
12 -10 26 -10 l26 0 -21 -35 -20 -34 152 -188 c1128 -1396 4392 -5403 4399
-5401 4 2 1030 1260 2278 2797 l2270 2793 -20 28 c-11 16 -17 35 -14 43 3 9
-1 17 -10 19 -9 1 -155 235 -326 518 -171 283 -359 595 -418 692 l-107 178
-3655 0 -3655 0 -420 -695z m7742 263 c110 -183 300 -499 422 -701 122 -203
221 -372 219 -377 -5 -15 -4302 -5300 -4309 -5300 -9 0 -4304 5288 -4307 5303
-2 8 21 52 49 98 41 66 569 939 757 1252 l34 57 3467 0 3468 0 200 -332z"/>
<path d="M4865 6508 c-27 -5 -138 -13 -245 -17 -110 -5 -232 -16 -280 -25
-115 -23 -346 -81 -449 -112 -61 -19 -90 -23 -105 -16 -15 6 -52 2 -126 -14
-329 -74 -525 -156 -680 -285 -57 -47 -120 -130 -120 -157 0 -21 85 -166 136
-233 81 -106 183 -193 289 -246 33 -17 52 -19 109 -14 l68 6 17 42 c46 121
139 186 283 199 l76 6 14 -58 c7 -33 13 -113 13 -179 -1 -128 0 -124 -84 -353
-20 -54 -31 -102 -31 -137 0 -37 -11 -81 -36 -146 -20 -52 -52 -166 -70 -254
-41 -189 -73 -294 -120 -389 -19 -39 -34 -75 -34 -81 0 -6 11 -27 25 -47 l25
-37 -50 -38 c-59 -46 -71 -68 -105 -202 -14 -57 -33 -117 -41 -133 -12 -22
-13 -41 -5 -91 23 -147 25 -135 -22 -144 -46 -9 -54 -25 -56 -103 -1 -36 8
-59 44 -120 25 -41 45 -79 45 -86 0 -7 16 -35 35 -64 19 -29 35 -58 35 -65 0
-8 15 -24 33 -36 17 -12 50 -39 72 -60 39 -36 42 -37 109 -35 l69 1 53 90 c29
50 57 97 62 105 8 13 17 10 58 -19 166 -117 295 -191 332 -191 8 0 12 16 12
46 0 33 4 45 13 42 6 -3 44 -15 82 -28 39 -13 83 -32 98 -43 26 -18 34 -18
103 -8 111 16 194 47 229 85 25 28 39 34 92 40 130 14 370 83 538 153 86 36
363 175 478 240 125 71 179 121 283 259 47 61 91 117 99 124 26 21 17 38 -35
67 -27 15 -50 30 -50 33 0 3 20 26 45 50 25 24 45 50 45 58 0 8 -23 69 -52
135 -35 82 -62 132 -84 152 -18 17 -45 50 -60 75 -39 64 -110 130 -287 269
-146 113 -297 259 -319 308 -9 19 -3 31 43 90 30 37 137 154 239 258 254 261
347 405 365 570 6 55 5 65 -19 99 -14 22 -26 53 -26 70 0 88 -51 159 -194 271
-45 34 -90 72 -100 84 -11 12 -40 30 -64 41 -24 11 -79 50 -123 86 -74 61 -82
66 -105 55 -39 -17 -96 -13 -134 11 -19 12 -60 28 -90 36 -65 18 -291 24 -365
10z m375 -567 c0 -58 1 -60 45 -98 l45 -39 -89 -99 c-207 -233 -422 -391 -680
-502 -154 -65 -151 -66 -184 3 -44 89 -72 119 -176 188 -89 60 -303 229 -309
245 -3 9 209 134 293 171 258 115 595 182 953 188 l102 2 0 -59z m30 -1441
c164 -27 427 -140 441 -190 11 -39 10 -121 -2 -164 -14 -52 -89 -129 -189
-197 -70 -47 -82 -59 -92 -95 -11 -41 -13 -43 -107 -79 -53 -21 -204 -86 -336
-145 -469 -211 -573 -245 -896 -294 -85 -13 -155 -23 -157 -21 -4 4 246 741
305 895 30 80 59 148 65 151 6 4 36 10 67 14 31 3 108 20 171 37 205 54 264
68 345 82 97 17 296 20 385 6z"/>
<path d="M4835 5744 c-55 -7 -145 -23 -200 -35 -102 -21 -304 -84 -317 -97 -5
-5 23 -30 62 -56 38 -26 84 -64 101 -83 l31 -36 57 27 c71 35 139 78 216 135
67 50 168 139 173 152 4 11 4 11 -123 -7z"/>
<path d="M4930 4265 c-47 -8 -121 -24 -165 -35 -44 -12 -129 -34 -190 -50
l-110 -28 -21 -54 c-51 -133 -166 -479 -161 -485 7 -7 149 36 267 82 47 18
200 84 340 147 140 64 273 122 294 129 25 9 48 27 64 52 14 21 67 67 120 104
93 65 94 66 71 79 -13 8 -60 25 -104 39 -101 33 -277 42 -405 20z"/>
<path d="M1420 6109 c-237 -251 -348 -375 -342 -383 20 -25 1772 -2159 1860
-2265 l95 -114 17 55 c9 31 24 66 33 78 16 22 15 26 -14 78 -17 29 -27 57 -23
61 5 4 28 22 50 39 39 30 43 38 68 137 14 57 37 128 49 157 13 29 24 71 25 94
1 27 18 72 53 138 60 114 79 171 119 361 17 77 46 187 64 245 19 58 39 139 45
180 6 41 19 102 31 134 11 33 20 63 20 67 0 4 -15 3 -32 -2 -18 -5 -56 -9 -84
-9 -28 0 -71 -6 -96 -14 -44 -13 -46 -12 -136 30 -124 57 -217 122 -305 210
-73 73 -159 186 -211 277 l-27 47 56 0 c48 0 56 3 53 18 -2 13 -17 18 -67 22
l-65 5 -26 65 -27 65 25 59 c82 203 260 358 548 477 54 23 103 45 109 50 5 5
-305 9 -752 9 l-762 0 -351 -371z"/>
<path d="M5882 6468 c3 -7 40 -42 84 -78 138 -112 231 -212 264 -282 17 -35
30 -72 30 -84 0 -11 11 -36 25 -54 37 -50 49 -99 41 -164 l-7 -56 -50 0 c-42
0 -49 -3 -49 -20 0 -17 7 -20 45 -20 44 0 45 -1 45 -31 0 -37 -41 -161 -74
-228 -63 -124 -154 -239 -330 -418 -175 -179 -178 -184 -161 -203 10 -11 77
-66 149 -122 185 -144 250 -203 312 -285 43 -55 62 -72 88 -77 30 -6 33 -11
49 -70 9 -35 39 -116 66 -180 44 -101 64 -172 73 -254 3 -20 11 -13 58 49 30
40 366 452 745 914 380 462 707 861 728 886 l37 46 -351 372 -352 371 -734 0
c-583 0 -734 -3 -731 -12z"/>
<path d="M8581 6124 c-25 -31 -25 -37 -7 -87 14 -40 79 -103 96 -92 15 9 12
41 -5 55 -12 10 -12 16 -1 39 27 52 28 69 7 90 -29 29 -65 27 -90 -5z m42 -49
c-3 -9 -8 -14 -10 -11 -3 3 -2 9 2 15 9 16 15 13 8 -4z"/>
<path d="M8506 6031 c-3 -5 3 -20 15 -35 23 -29 36 -90 21 -99 -5 -4 -17 2
-27 13 -18 20 -59 27 -69 12 -7 -12 64 -78 92 -87 38 -11 62 19 62 78 0 56
-22 100 -57 116 -29 13 -30 13 -37 2z"/>
<path d="M8365 5851 c-8 -39 3 -98 26 -138 18 -32 18 -33 -4 -48 -30 -21 -34
-19 -29 15 2 17 -1 37 -8 45 -16 19 -86 20 -93 1 -7 -18 4 -95 14 -102 17 -10
9 -23 -21 -39 -31 -16 -41 -45 -15 -45 19 0 19 -4 -1 -41 -21 -42 -29 -29 -29
48 0 70 -11 86 -39 58 -19 -20 -22 -111 -4 -150 12 -27 45 -41 76 -31 20 7 72
99 72 129 0 14 4 16 19 8 21 -12 31 -5 31 19 0 9 18 26 40 39 30 16 40 29 40
47 0 14 6 24 15 24 19 0 65 80 65 114 0 21 -7 30 -37 42 -21 9 -46 20 -55 25
-34 17 -56 10 -63 -20z m100 -41 c8 -13 -16 -62 -32 -68 -9 -2 -13 9 -13 37 0
34 3 41 19 41 11 0 23 -4 26 -10z m-145 -124 c0 -3 -4 -8 -10 -11 -5 -3 -10
-1 -10 4 0 6 5 11 10 11 6 0 10 -2 10 -4z"/>
<path d="M8010 5422 c0 -5 13 -26 30 -48 37 -49 39 -66 2 -31 -27 26 -66 36
-75 20 -9 -14 51 -131 72 -143 28 -14 44 -4 37 25 -5 19 -1 24 24 29 25 4 30
10 30 34 0 40 -65 122 -96 122 -13 0 -24 -4 -24 -8z"/>
<path d="M7923 5303 c-19 -7 -16 -20 11 -56 38 -53 41 -61 18 -48 -11 6 -22
17 -26 26 -6 17 -66 21 -66 5 0 -6 9 -28 20 -50 11 -22 20 -44 20 -50 0 -14
-40 -12 -70 4 -60 34 -75 -36 -26 -131 18 -37 32 -53 46 -53 21 0 28 28 12 46
-13 13 19 39 48 39 30 0 38 26 15 48 -8 9 -15 19 -15 23 0 5 5 3 12 -4 15 -15
58 -16 58 -1 0 6 -5 20 -11 31 -9 17 -9 20 2 16 8 -3 25 -1 38 3 20 8 22 14
17 40 -5 27 -73 120 -86 118 -3 0 -11 -3 -17 -6z m-78 -233 c3 -5 1 -10 -4
-10 -6 0 -11 5 -11 10 0 6 2 10 4 10 3 0 8 -4 11 -10z"/>
<path d="M7704 5034 c-7 -3 -9 -24 -6 -56 4 -47 3 -51 -14 -43 -22 9 -62 10
-71 1 -10 -9 15 -80 41 -119 23 -33 23 -36 8 -50 -36 -30 -40 -28 -35 12 5 37
4 39 -30 50 -26 9 -42 9 -56 2 -30 -16 -23 -87 12 -132 18 -23 22 -35 14 -37
-7 -1 -22 -17 -32 -34 -10 -18 -20 -27 -22 -21 -3 7 3 24 13 38 22 33 5 57
-26 37 -11 -7 -20 -8 -20 -3 0 6 5 13 10 16 16 10 12 55 -4 55 -17 0 -48 -38
-66 -79 -12 -29 -10 -33 19 -60 37 -35 39 -51 8 -51 -16 0 -28 9 -35 25 -22
48 -70 29 -106 -42 -25 -50 -22 -66 15 -61 26 4 34 0 52 -28 29 -44 45 -49 72
-24 23 21 50 94 41 109 -3 4 5 6 18 4 17 -4 31 4 55 33 17 21 31 48 31 60 0
15 6 21 18 20 11 -1 17 6 17 19 0 13 12 26 36 36 22 10 43 30 53 50 15 30 15
34 -3 64 -18 31 -18 32 3 41 11 5 25 23 30 39 14 41 13 41 40 16 25 -24 46
-21 46 5 0 18 -88 114 -104 113 -6 0 -16 -3 -22 -5z m-127 -266 c-3 -8 -6 -5
-6 6 -1 11 2 17 5 13 3 -3 4 -12 1 -19z m-143 -260 c-8 -28 -12 -33 -20 -25
-9 8 6 47 17 47 6 0 7 -10 3 -22z"/>
<path d="M7243 4473 c-16 -6 -18 -116 -3 -144 10 -17 9 -18 -13 -8 -27 12 -89
-1 -121 -26 -18 -13 -15 -17 43 -76 34 -33 67 -59 74 -56 15 5 42 111 33 126
-4 5 7 4 24 -2 26 -10 32 -8 54 12 31 29 48 71 44 107 -3 25 -10 31 -50 44
-26 8 -50 18 -54 23 -8 8 -13 8 -31 0z m87 -82 c0 -9 -7 -27 -16 -40 -13 -18
-18 -20 -25 -10 -10 16 -12 63 -3 71 11 11 44 -5 44 -21z m-120 -125 c0 -35
-14 -39 -39 -12 -23 25 -18 33 22 35 12 1 17 -7 17 -23z"/>
<path d="M5640 2923 c-239 -115 -482 -200 -680 -235 -41 -8 -83 -24 -115 -44
-68 -44 -145 -68 -311 -97 -158 -28 -298 -29 -393 -2 -31 9 -98 38 -149 65
l-93 49 -43 -44 c-50 -49 -112 -84 -140 -77 -13 3 -16 0 -11 -9 5 -7 153 -188
329 -403 177 -215 366 -445 420 -511 54 -66 101 -121 105 -122 3 -1 263 311
576 694 314 383 592 720 619 750 26 29 42 53 35 52 -8 0 -75 -30 -149 -66z"/>
</g>
</svg>
